<svg id="Capa_1" enable-background="new 0 0 512 512" height="512" viewBox="0 0 512 512" width="512" xmlns="http://www.w3.org/2000/svg"><g><path d="m347.287 247.312c-.582-31.655-26.496-57.231-58.287-57.231-20.134 0-38.329 10.065-49.003 26.678l57.916 94.462z"/><path d="m183.988 125.409 39.258 64.03c5.323-5.934 11.448-11.155 18.238-15.497 14.184-9.068 30.615-13.861 47.516-13.861 48.654 0 88.244 39.548 88.313 88.188l60.187 101.155v-274.924h-333v-74.5h-30v74.5h-74.5v30h74.5v209.488z"/><path d="m437.147 407.5-76.446-128.479-65.634 84.955-110.378-180.028-110.189 189.787v63.765h333v74.5h30v-74.5h74.5v-30z"/></g></svg>